<?xml version="1.0" encoding="utf-8"?>
<!-- Generator: Adobe Illustrator 23.0.3, SVG Export Plug-In . SVG Version: 6.00 Build 0)  -->
<svg version="1.1" id="S_Visibility_24_N" xmlns="http://www.w3.org/2000/svg" xmlns:xlink="http://www.w3.org/1999/xlink" x="0px"
	 y="0px" viewBox="0 0 24 24" style="enable-background:new 0 0 24 24;" xml:space="preserve">
<style type="text/css">
	.st0{fill:#3F6BD4;fill-opacity:0;}
	.st1{fill:#3F6BD4;}
</style>
<rect id="Canvas" x="4.5" y="4.5" class="st0" width="15" height="15"/>
<path class="st1" d="M14.8,8.1C13.9,7.6,13,7.4,12,7.4c-3.6,0-6.6,3.6-6.6,4.8c0,1.2,3.1,4.5,6.5,4.5c3.5,0,6.6-3.2,6.6-4.5
	C18.6,11.2,16.8,9.1,14.8,8.1z M12,15.8c-2.1,0-3.8-1.7-3.8-3.8c0-2.1,1.7-3.8,3.8-3.8c2.1,0,3.8,1.7,3.8,3.8v0
	C15.8,14.1,14.1,15.8,12,15.8z"/>
<path class="st1" d="M13.1,12c-0.6,0-1.1-0.5-1.1-1.1c0-0.4,0.2-0.8,0.6-0.9c-0.2-0.1-0.4-0.1-0.6-0.1c-1.2,0-2.1,0.9-2.1,2.1
	s0.9,2.1,2.1,2.1s2.1-0.9,2.1-2.1c0-0.2,0-0.3-0.1-0.5C13.8,11.8,13.5,12,13.1,12z"/>
</svg>
