<?xml version="1.0" encoding="utf-8"?>
<!-- Generator: Adobe Illustrator 23.0.3, SVG Export Plug-In . SVG Version: 6.00 Build 0)  -->
<svg version="1.1" id="S_DownloadFromCloudOutline_24_N"
	 xmlns="http://www.w3.org/2000/svg" xmlns:xlink="http://www.w3.org/1999/xlink" x="0px" y="0px" viewBox="0 0 24 24"
	 style="enable-background:new 0 0 24 24;" xml:space="preserve">
<style type="text/css">
	.st0{fill:#3855C2;fill-opacity:0;}
	.st1{fill:#3855C2;}
</style>
<rect id="Canvas" x="4.5" y="4.5" class="st0" width="15" height="15"/>
<path class="st1" d="M12.1,18.5c-0.1,0-0.1,0-0.2,0l-1.7-1.7c0,0-0.1-0.1-0.1-0.2c0-0.1,0.1-0.2,0.2-0.2h1v-5.9
	c0-0.2,0.1-0.3,0.3-0.3h0.6c0.2,0,0.3,0.1,0.3,0.3v5.9h1c0.1,0,0.2,0.1,0.2,0.2c0,0.1,0,0.1-0.1,0.2L12.1,18.5z"/>
<path class="st1" d="M17,9.1c-0.2-0.1-0.4-0.2-0.6-0.2c-0.1-0.8-0.4-1.5-1-2.1c-0.7-0.7-1.6-1-2.5-1h-0.1c-0.4,0-0.9,0.1-1.3,0.2
	c-0.8,0.3-1.5,1-1.9,1.8C9,7.8,8.3,8.1,7.7,8.7c-0.5,0.5-0.8,1.1-0.9,1.8c-0.8,0.3-1.3,1.1-1.4,2c0,0.5,0.2,1.1,0.6,1.4
	c0.5,0.5,1.2,0.7,2,0.7h1.5c0.2,0,0.3-0.1,0.3-0.3v-0.6c0-0.2-0.1-0.3-0.3-0.3H8c-0.3,0-0.6,0-0.9-0.2c-0.4-0.3-0.5-0.8-0.2-1.2
	c0.1-0.2,0.3-0.3,0.5-0.4c0.1,0,0.2,0,0.3,0c0.2,0,0.4,0,0.5,0.1C7.9,10.9,8,10.1,8.6,9.5C8.9,9.2,9.4,9,9.9,9
	c0.3,0,0.5,0.1,0.8,0.2c0-1.2,1-2.2,2.2-2.2h0c0.6,0,1.2,0.2,1.6,0.7c0.6,0.6,0.8,1.6,0.4,2.4c0.2,0,0.4-0.1,0.5-0.1
	c0.3,0,0.6,0.1,0.9,0.2c0.8,0.4,1.1,1.3,0.7,2.1c-0.2,0.4-0.5,0.6-0.8,0.8c-0.4,0.1-0.8,0.2-1.2,0.2h-0.6c-0.2,0-0.3,0.1-0.3,0.3
	v0.6c0,0.2,0.1,0.3,0.3,0.3h0.6c0.6,0,1.2-0.1,1.7-0.3c1-0.4,1.7-1.4,1.8-2.5C18.6,10.6,18,9.6,17,9.1z"/>
</svg>
