<?xml version="1.0" encoding="utf-8"?>
<!-- Generator: Adobe Illustrator 23.0.5, SVG Export Plug-In . SVG Version: 6.00 Build 0)  -->
<svg version="1.1" id="S_FileSpace_24_N_1x" xmlns="http://www.w3.org/2000/svg" xmlns:xlink="http://www.w3.org/1999/xlink"
	 x="0px" y="0px" viewBox="0 0 24 24" style="enable-background:new 0 0 24 24;" xml:space="preserve">
<style type="text/css">
	.st0{fill:#3753B9;fill-opacity:0;}
	.st1{fill:#3753B9;}
</style>
<title>S_FileSpace_24_N@1x</title>
<g>
	<rect id="Canvas_1_" x="4.6" y="4" class="st0" width="15" height="15"/>
	<path class="st1" d="M16.5,10.2h-0.6V9.6c0-2.1-1.7-3.8-3.8-3.8S8.4,7.5,8.4,9.6v0.6H7.8c-0.3,0-0.6,0.3-0.6,0.6v6.2
		c0,0.3,0.3,0.6,0.6,0.6h8.8c0.3,0,0.6-0.3,0.6-0.6v-6.2C17.1,10.5,16.8,10.2,16.5,10.2z M12.8,14.4v1.1c0,0.2-0.1,0.3-0.3,0.3h-0.6
		c-0.2,0-0.3-0.1-0.3-0.3v-1.1c-0.6-0.3-0.8-1.1-0.5-1.7c0.3-0.6,1.1-0.8,1.7-0.5c0.6,0.3,0.8,1.1,0.5,1.7
		C13.1,14.1,12.9,14.3,12.8,14.4z M14.6,10.2h-5V9.6c0-1.4,1.1-2.5,2.5-2.5s2.5,1.1,2.5,2.5V10.2z"/>
</g>
</svg>
